:SAMPLES-PER-SECOND 30
:FULLY-SPECIFIED
:DEGREES
1
root  -69.5773 41.612 -3.37532 147.74 89.8155 146.948
RightUpLeg  -1.26954 -8.52115 -4.63153
RightLeg  5.36648 -8.58132 4.21419
RightFoot  -2.8564 0.0372486 -0.838011
RightToes  0.000482159 0.542163 -0.142577
Spine  8.87799 0.828257 1.10971
Spine1  -4.03193 0.765293 1.02678
HEad  -0.788618 1.54274 0.0381062
LeftShoulder1  0.831727 -1.16791 -10.4287
LeftArm  -20.9389 14.5025 -10.5318
LeftForeArm  17.194 -2.84059 0.158867
LeftHand  -0.25398 0.0180481 5.50724
RightShoulder  0.399147 -0.884934 7.70867
RightArm  -19.1911 -8.38633 5.9376
RightForeArm  -1.83108 4.46697 3.22011
RightHand  -4.28433 12.2133 -28.1558
LeftUpLeg  0.071676 4.09428 -0.121721
LeftLeg  2.14301 16.7055 -4.48749
LeftFoot  -2.8785 -0.261269 3.80605
LeftToes  1.06246e-005 4.65855e-005 -8.18503e-006
2
root  -69.5658 41.612 -3.39004 135.151 89.874 134.33
RightUpLeg  -1.26915 -8.4958 -4.62901
RightLeg  5.33592 -8.51541 4.20644
RightFoot  -2.87851 0.0254119 -0.654118
RightToes  0.000482159 0.542163 -0.142577
Spine  8.84443 0.856822 1.10779
Spine1  -4.00476 0.796105 1.00932
HEad  -0.760863 1.50279 -0.116776
LeftShoulder1  0.840014 -1.19476 -10.5123
LeftArm  -20.9606 14.4869 -10.4747
LeftForeArm  17.1961 -2.78891 0.180946
LeftHand  -0.25398 0.0180481 5.50724
RightShoulder  0.422713 -0.743527 7.79136
RightArm  -19.0901 -8.45255 5.77397
RightForeArm  -2.35853 4.45269 3.2636
RightHand  -4.12747 11.6448 -28.0349
LeftUpLeg  0.0965574 4.12612 -0.0992179
LeftLeg  2.08486 16.7277 -4.53314
LeftFoot  -2.88314 -0.260881 3.8
LeftToes  1.06246e-005 4.65855e-005 -8.18503e-006
3
root  -69.5497 41.6117 -3.41719 68.7218 89.8526 67.6349
RightUpLeg  -1.61239 -8.53249 -4.70597
RightLeg  5.47614 -8.36876 4.1825
RightFoot  -2.96643 0.011552 -0.438829
RightToes  0.000482159 0.542163 -0.142577
Spine  8.50747 0.896959 0.886803
Spine1  -3.85778 0.809131 1.09917
HEad  -0.863814 1.34302 -0.149446
LeftShoulder1  0.834617 -1.15498 -10.551
LeftArm  -20.9577 14.5499 -10.4832
LeftForeArm  17.0604 -2.80319 0.179035
LeftHand  -0.25398 0.0180481 5.50724
RightShoulder  0.4679 -0.454778 7.83011
RightArm  -18.9598 -8.57253 5.63849
RightForeArm  -3.34659 4.43533 3.33639
RightHand  -3.84703 10.6125 -27.821
LeftUpLeg  -0.0770451 4.0567 -0.215849
LeftLeg  1.90079 16.9085 -4.61698
LeftFoot  -2.83083 -0.263271 3.83724
LeftToes  1.06246e-005 4.65855e-005 -8.18503e-006
4
root  -69.5366 41.6096 -3.43806 53.7778 89.815 52.4919
RightUpLeg  -1.85126 -8.51888 -4.70065
RightLeg  5.53199 -8.33486 4.15249
RightFoot  -2.98869 0.0103265 -0.422864
RightToes  0.000482159 0.542163 -0.142577
Spine  8.3158 0.895983 0.670689
Spine1  -3.77409 0.783763 1.17865
HEad  -0.988853 1.26227 -0.156829
LeftShoulder1  0.821238 -1.11314 -10.4092
LeftArm  -20.9272 14.6999 -10.6151
LeftForeArm  16.9084 -2.81301 0.166682
LeftHand  -0.25398 0.0180481 5.50724
RightShoulder  0.498178 -0.261502 7.85175
RightArm  -19.0243 -8.62791 5.64348
RightForeArm  -3.32309 4.37582 3.30377
RightHand  -3.77642 10.443 -27.6159
LeftUpLeg  -0.258367 4.0347 -0.260071
LeftLeg  1.87444 16.9861 -4.64951
LeftFoot  -2.84698 -0.265298 3.86881
LeftToes  1.06246e-005 4.65855e-005 -8.18503e-006
5
root  -69.5236 41.6066 -3.46087 56.0159 89.7808 54.522
RightUpLeg  -2.09916 -8.52977 -4.72393
RightLeg  5.58275 -8.28604 4.13025
RightFoot  -2.97204 0.0140593 -0.492855
RightToes  0.000482159 0.542163 -0.142577
Spine  8.16496 0.896437 0.60563
Spine1  -3.78494 0.808651 0.994815
HEad  -1.13176 1.10207 -0.0699915
LeftShoulder1  0.819614 -1.18767 -10.0631
LeftArm  -20.9586 14.8455 -10.8512
LeftForeArm  16.9648 -2.72817 0.198488
LeftHand  -0.25398 0.0180481 5.50724
RightShoulder  0.495824 -0.312015 8.0433
RightArm  -19.2242 -8.55878 5.63363
RightForeArm  -2.32023 4.23877 3.1754
RightHand  -3.98042 11.2916 -27.6282
LeftUpLeg  -0.468553 3.96208 -0.353924
LeftLeg  1.87715 17.0903 -4.63877
LeftFoot  -2.87357 -0.266641 3.88973
LeftToes  1.06246e-005 4.65855e-005 -8.18503e-006
6
root  -69.5086 41.6057 -3.48589 46.215 89.7561 44.6141
RightUpLeg  -2.20791 -8.50785 -4.72089
RightLeg  5.5846 -8.2519 4.10361
RightFoot  -2.92849 0.0155488 -0.527699
RightToes  0.000482159 0.542163 -0.142577
Spine  8.20192 0.917482 0.737859
Spine1  -3.90679 0.896137 0.605888
HEad  -1.24008 0.881514 0.104977
LeftShoulder1  0.823457 -1.29913 -9.70576
LeftArm  -21.0669 14.9136 -11.0799
LeftForeArm  17.1702 -2.65815 0.256563
LeftHand  -0.25398 0.0180481 5.50724
RightShoulder  0.476361 -0.487556 8.32902
RightArm  -19.3008 -8.4129 5.57596
RightForeArm  -2.13979 4.09739 3.12752
RightHand  -4.12826 11.7162 -27.9317
LeftUpLeg  -0.545215 3.92403 -0.400718
LeftLeg  1.84483 17.1836 -4.63386
LeftFoot  -2.89529 -0.2695 3.93427
LeftToes  1.06246e-005 4.65855e-005 -8.18503e-006
7
root  -69.4929 41.6047 -3.5116 31.652 89.71 29.9919
RightUpLeg  -2.26088 -8.47082 -4.70805
RightLeg  5.586 -8.22792 4.0668
RightFoot  -2.91218 0.0143074 -0.519965
RightToes  0.000482159 0.542163 -0.142577
Spine  8.30563 0.937975 0.783637
Spine1  -4.01047 0.948418 0.417867
HEad  -1.22734 0.819496 0.267384
LeftShoulder1  0.818392 -1.28722 -9.6367
LeftArm  -21.126 14.9041 -11.1158
LeftForeArm  17.2571 -2.70959 0.270151
LeftHand  -0.25398 0.0180481 5.50724
RightShoulder  0.462052 -0.591927 8.41153
RightArm  -19.1628 -8.30261 5.61372
RightForeArm  -3.36889 4.10952 3.24533
RightHand  -3.99228 10.987 -28.1927
LeftUpLeg  -0.520722 3.9246 -0.416034
LeftLeg  1.71707 17.2556 -4.68601
LeftFoot  -2.89068 -0.275064 4.02096
LeftToes  1.06246e-005 4.65855e-005 -8.18503e-006
8
root  -69.4724 41.6038 -3.5369 32.994 89.7111 31.2633
RightUpLeg  -2.29528 -8.44807 -4.72859
RightLeg  5.56249 -8.23675 4.02958
RightFoot  -2.95418 0.00509827 -0.388466
RightToes  0.000482159 0.542163 -0.142577
Spine  8.28968 0.921224 0.574811
Spine1  -3.95196 0.887845 0.638989
HEad  -1.07794 1.00078 0.322365
LeftShoulder1  0.810537 -1.17008 -9.91936
LeftArm  -21.0668 14.8459 -10.9214
LeftForeArm  17.1377 -2.78054 0.233308
LeftHand  -0.25398 0.0180481 5.50724
RightShoulder  0.456192 -0.598448 8.22662
RightArm  -18.9895 -8.28815 5.74938
RightForeArm  -4.17101 4.31714 3.3839
RightHand  -3.8208 10.3265 -28.1151
LeftUpLeg  -0.504232 3.91361 -0.452577
LeftLeg  1.59086 17.2534 -4.74738
LeftFoot  -2.89727 -0.277998 4.06668
LeftToes  1.06246e-005 4.65855e-005 -8.18503e-006
9
root  -69.443 41.603 -3.5638 52.4918 89.8072 50.7107
RightUpLeg  -2.24481 -8.41612 -4.75636
RightLeg  5.4744 -8.35216 3.99009
RightFoot  -3.01615 -0.0118557 -0.136845
RightToes  0.000482159 0.542163 -0.142577
Spine  8.15485 0.869021 0.304482
Spine1  -3.70811 0.761976 1.01964
HEad  -0.905036 1.28464 0.273562
LeftShoulder1  0.807502 -1.06771 -10.2817
LeftArm  -20.9916 14.7606 -10.7272
LeftForeArm  16.9524 -2.7609 0.202753
LeftHand  -0.25398 0.0180481 5.50724
RightShoulder  0.450835 -0.593187 7.99018
RightArm  -18.9855 -8.30054 5.84837
RightForeArm  -3.3573 4.52418 3.38291
RightHand  -3.88275 10.7453 -27.8498
LeftUpLeg  -0.517614 3.86333 -0.504423
LeftLeg  1.59388 17.1784 -4.71905
LeftFoot  -2.94743 -0.275546 4.02848
LeftToes  1.06246e-005 4.65855e-005 -8.18503e-006
10
root  -69.4139 41.6023 -3.5951 75.6842 89.8897 73.869
RightUpLeg  -2.19731 -8.36957 -4.75149
RightLeg  5.42522 -8.52452 3.94202
RightFoot  -3.04294 -0.0185842 -0.0443173
RightToes  0.000482159 0.542163 -0.142577
Spine  8.03642 0.835505 0.192643
Spine1  -3.43226 0.688474 1.22111
HEad  -0.83484 1.5081 0.195554
LeftShoulder1  0.800981 -1.00894 -10.433
LeftArm  -20.9924 14.6853 -10.7454
LeftForeArm  16.8422 -2.73455 0.195104
LeftHand  -0.25398 0.0180481 5.50724
RightShoulder  0.44659 -0.595477 7.83293
RightArm  -19.1302 -8.27231 5.91016
RightForeArm  -2.30289 4.53531 3.28972
RightHand  -4.02919 11.4164 -27.7533
LeftUpLeg  -0.541731 3.78148 -0.560848
LeftLeg  1.64526 17.1674 -4.62077
LeftFoot  -2.99429 -0.274199 4.00749
LeftToes  1.06246e-005 4.65855e-005 -8.18503e-006
11
root  -69.3961 41.601 -3.62977 60.6483 89.8689 58.7269
RightUpLeg  -2.34313 -8.3686 -4.7661
RightLeg  5.52734 -8.52294 3.90289
RightFoot  -3.05326 -0.0105842 -0.180917
RightToes  0.000482159 0.542163 -0.142577
Spine  8.02528 0.878094 0.204699
Spine1  -3.37098 0.742538 1.15098
HEad  -0.862328 1.52945 0.152964
LeftShoulder1  0.801139 -1.01367 -10.3445
LeftArm  -21.0439 14.6725 -10.88
LeftForeArm  16.9061 -2.79772 0.19645
LeftHand  -0.25398 0.0180481 5.50724
RightShoulder  0.447531 -0.578841 7.7542
RightArm  -19.2018 -8.30286 5.97831
RightForeArm  -2.48662 4.42992 3.2585
RightHand  -4.01134 11.3052 -27.8117
LeftUpLeg  -0.607414 3.69587 -0.651802
LeftLeg  1.58831 17.3163 -4.58762
LeftFoot  -3.01833 -0.276297 4.04975
LeftToes  1.06246e-005 4.65855e-005 -8.18503e-006
12
root  -69.3829 41.5945 -3.66335 42.018 89.7401 39.9005
RightUpLeg  -2.65268 -8.44532 -4.85908
RightLeg  5.72303 -8.26934 3.89282
RightFoot  -3.12513 -0.01285 -0.158684
RightToes  0.000482159 0.542163 -0.142577
Spine  8.11817 0.989288 0.222139
Spine1  -3.6091 0.896325 0.913211
HEad  -0.908881 1.27488 0.165623
LeftShoulder1  0.817267 -1.15131 -10.1562
LeftArm  -21.1506 14.7473 -10.9323
LeftForeArm  17.2006 -2.89623 0.237622
LeftHand  -0.25398 0.0180481 5.50724
RightShoulder  0.449321 -0.576696 7.83819
RightArm  -19.0863 -8.47725 5.92366
RightForeArm  -3.09838 4.39571 3.30295
RightHand  -3.91025 10.8973 -27.7883
LeftUpLeg  -0.772855 3.63794 -0.771338
LeftLeg  1.5633 17.5211 -4.63427
LeftFoot  -3.15908 -0.268243 4.01553
LeftToes  1.06246e-005 4.65855e-005 -8.18503e-006
13
root  -69.3612 41.5775 -3.69642 38.564 89.6405 36.2518
RightUpLeg  -2.96035 -8.55103 -4.9618
RightLeg  5.97495 -8.01772 3.89841
RightFoot  -3.30711 -0.0306612 0.104197
RightToes  0.000482159 0.542163 -0.142577
Spine  8.22677 1.08695 0.239553
Spine1  -3.88994 1.03386 0.69227
HEad  -0.98301 0.986053 0.217495
LeftShoulder1  0.842869 -1.33378 -10.0146
LeftArm  -21.3756 14.8976 -10.9096
LeftForeArm  17.5482 -3.01477 0.340733
LeftHand  -0.25398 0.0180481 5.50724
RightShoulder  0.453872 -0.59484 8.11575
RightArm  -19.0563 -8.61094 5.70725
RightForeArm  -2.84469 4.39731 3.27572
RightHand  -3.94255 11.0479 -27.7634
LeftUpLeg  -1.10209 3.59172 -0.862849
LeftLeg  1.97828 17.6712 -4.5508
LeftFoot  -3.62585 -0.235341 3.81222
LeftToes  1.06246e-005 4.65855e-005 -8.18503e-006
